<svg width="21" height="25" viewBox="0 0 21 25" fill="none" xmlns="http://www.w3.org/2000/svg">
<path d="M12.5833 7.29167V0.479167C13.5469 0.843058 14.4222 1.40762 15.151 2.13542L18.7802 5.76667C19.5088 6.49467 20.0738 7.36968 20.4375 8.33333H13.625C13.3487 8.33333 13.0838 8.22359 12.8884 8.02824C12.6931 7.83289 12.5833 7.56793 12.5833 7.29167ZM20.9167 10.9219V19.7917C20.915 21.1725 20.3657 22.4963 19.3894 23.4727C18.413 24.4491 17.0892 24.9983 15.7083 25H5.29166C3.91083 24.9983 2.58703 24.4491 1.61064 23.4727C0.634247 22.4963 0.0849823 21.1725 0.0833282 19.7917V5.20833C0.0849823 3.82751 0.634247 2.50371 1.61064 1.52731C2.58703 0.550919 3.91083 0.00165402 5.29166 0L9.99479 0C10.1646 0 10.3323 0.0135417 10.5 0.025V7.29167C10.5 8.12047 10.8292 8.91532 11.4153 9.50138C12.0013 10.0874 12.7962 10.4167 13.625 10.4167H20.8917C20.9031 10.5844 20.9167 10.7521 20.9167 10.9219ZM15.4208 14.9073C15.2304 14.7074 14.9684 14.5913 14.6924 14.5845C14.4165 14.5776 14.149 14.6806 13.949 14.8708L10.199 18.4448C10.0988 18.5456 9.97898 18.6248 9.84702 18.6776C9.71506 18.7304 9.57369 18.7556 9.43162 18.7517C9.28955 18.7478 9.14978 18.7148 9.02091 18.6549C8.89204 18.5949 8.7768 18.5093 8.68229 18.4031L7.02708 16.9302C6.92489 16.8391 6.80577 16.769 6.67649 16.724C6.54722 16.6789 6.41034 16.6597 6.27367 16.6676C5.99764 16.6834 5.7392 16.8082 5.5552 17.0146C5.4641 17.1168 5.39401 17.2359 5.34895 17.3652C5.30388 17.4944 5.28472 17.6313 5.29256 17.768C5.30838 18.044 5.43321 18.3025 5.63958 18.4865L7.24791 19.9177C7.8309 20.5008 8.62074 20.8299 9.44531 20.8332C10.2699 20.8365 11.0623 20.5138 11.65 19.9354L15.3844 16.3792C15.5842 16.1887 15.7004 15.9268 15.7072 15.6508C15.714 15.3748 15.611 15.1074 15.4208 14.9073Z" fill="#D90429"/>
</svg>
