<svg width="25" height="25" viewBox="0 0 25 25" fill="none" xmlns="http://www.w3.org/2000/svg">
<g clip-path="url(#clip0_8_75)">
<path d="M11.4583 13.5417H3.125C1.39896 13.5417 0 14.9406 0 16.6667V25H11.4583V13.5417ZM3.64583 18.75V16.6667H7.8125V18.75H3.64583ZM21.875 13.5417H13.5417V25H25V16.6667C25 14.9406 23.601 13.5417 21.875 13.5417ZM21.3542 18.75H17.1875V16.6667H21.3542V18.75ZM15.625 0H9.375C7.65208 0 6.25 1.40208 6.25 3.125V11.4583H18.75V3.125C18.75 1.40208 17.3479 0 15.625 0ZM14.5833 5.20833H10.4167V3.125H14.5833V5.20833Z" fill="#D90429"/>
</g>
<defs>
<clipPath id="clip0_8_75">
<rect width="25" height="25" fill="white"/>
</clipPath>
</defs>
</svg>
