<svg width="25" height="25" viewBox="0 0 25 25" fill="none" xmlns="http://www.w3.org/2000/svg">
<g clip-path="url(#clip0_8_71)">
<path d="M19.7917 25H18.75C18.4737 25 18.2088 24.8903 18.0134 24.6949C17.8181 24.4996 17.7083 24.2346 17.7083 23.9583C17.7083 23.6821 17.8181 23.4171 18.0134 23.2218C18.2088 23.0264 18.4737 22.9167 18.75 22.9167H19.7917C20.6205 22.9167 21.4153 22.5874 22.0014 22.0014C22.5874 21.4153 22.9167 20.6205 22.9167 19.7917V18.75C22.9167 18.4737 23.0264 18.2088 23.2218 18.0134C23.4171 17.8181 23.6821 17.7083 23.9583 17.7083C24.2346 17.7083 24.4996 17.8181 24.6949 18.0134C24.8903 18.2088 25 18.4737 25 18.75V19.7917C24.9983 21.1725 24.4491 22.4963 23.4727 23.4727C22.4963 24.4491 21.1725 24.9983 19.7917 25ZM25 6.25V5.20833C24.9983 3.82751 24.4491 2.50371 23.4727 1.52731C22.4963 0.550919 21.1725 0.00165402 19.7917 0L18.75 0C18.4737 0 18.2088 0.109747 18.0134 0.305097C17.8181 0.500448 17.7083 0.765399 17.7083 1.04167C17.7083 1.31793 17.8181 1.58289 18.0134 1.77824C18.2088 1.97359 18.4737 2.08333 18.75 2.08333H19.7917C20.6205 2.08333 21.4153 2.41257 22.0014 2.99862C22.5874 3.58468 22.9167 4.37953 22.9167 5.20833V6.25C22.9167 6.52627 23.0264 6.79122 23.2218 6.98657C23.4171 7.18192 23.6821 7.29167 23.9583 7.29167C24.2346 7.29167 24.4996 7.18192 24.6949 6.98657C24.8903 6.79122 25 6.52627 25 6.25ZM25 14.5833V10.4167C25 10.1404 24.8903 9.87545 24.6949 9.6801C24.4996 9.48475 24.2346 9.375 23.9583 9.375C23.6821 9.375 23.4171 9.48475 23.2218 9.6801C23.0264 9.87545 22.9167 10.1404 22.9167 10.4167V14.5833C22.9167 14.8596 23.0264 15.1246 23.2218 15.3199C23.4171 15.5153 23.6821 15.625 23.9583 15.625C24.2346 15.625 24.4996 15.5153 24.6949 15.3199C24.8903 15.1246 25 14.8596 25 14.5833ZM7.29167 23.9583C7.29167 23.6821 7.18192 23.4171 6.98657 23.2218C6.79122 23.0264 6.52627 22.9167 6.25 22.9167H5.20833C4.37953 22.9167 3.58468 22.5874 2.99862 22.0014C2.41257 21.4153 2.08333 20.6205 2.08333 19.7917V18.75C2.08333 18.4737 1.97359 18.2088 1.77824 18.0134C1.58289 17.8181 1.31793 17.7083 1.04167 17.7083C0.765399 17.7083 0.500448 17.8181 0.305097 18.0134C0.109747 18.2088 0 18.4737 0 18.75L0 19.7917C0.00165402 21.1725 0.550919 22.4963 1.52731 23.4727C2.50371 24.4491 3.82751 24.9983 5.20833 25H6.25C6.52627 25 6.79122 24.8903 6.98657 24.6949C7.18192 24.4996 7.29167 24.2346 7.29167 23.9583ZM2.08333 6.25V5.20833C2.08333 4.37953 2.41257 3.58468 2.99862 2.99862C3.58468 2.41257 4.37953 2.08333 5.20833 2.08333H6.25C6.52627 2.08333 6.79122 1.97359 6.98657 1.77824C7.18192 1.58289 7.29167 1.31793 7.29167 1.04167C7.29167 0.765399 7.18192 0.500448 6.98657 0.305097C6.79122 0.109747 6.52627 0 6.25 0L5.20833 0C3.82751 0.00165402 2.50371 0.550919 1.52731 1.52731C0.550919 2.50371 0.00165402 3.82751 0 5.20833L0 6.25C0 6.52627 0.109747 6.79122 0.305097 6.98657C0.500448 7.18192 0.765399 7.29167 1.04167 7.29167C1.31793 7.29167 1.58289 7.18192 1.77824 6.98657C1.97359 6.79122 2.08333 6.52627 2.08333 6.25ZM2.08333 14.5833V10.4167C2.08333 10.1404 1.97359 9.87545 1.77824 9.6801C1.58289 9.48475 1.31793 9.375 1.04167 9.375C0.765399 9.375 0.500448 9.48475 0.305097 9.6801C0.109747 9.87545 0 10.1404 0 10.4167L0 14.5833C0 14.8596 0.109747 15.1246 0.305097 15.3199C0.500448 15.5153 0.765399 15.625 1.04167 15.625C1.31793 15.625 1.58289 15.5153 1.77824 15.3199C1.97359 15.1246 2.08333 14.8596 2.08333 14.5833ZM15.5542 1.04167C15.5542 0.765399 15.4444 0.500448 15.2491 0.305097C15.0537 0.109747 14.7888 0 14.5125 0L10.4167 0C10.1404 0 9.87545 0.109747 9.6801 0.305097C9.48475 0.500448 9.375 0.765399 9.375 1.04167C9.375 1.31793 9.48475 1.58289 9.6801 1.77824C9.87545 1.97359 10.1404 2.08333 10.4167 2.08333H14.5125C14.7888 2.08333 15.0537 1.97359 15.2491 1.77824C15.4444 1.58289 15.5542 1.31793 15.5542 1.04167ZM15.625 23.9583C15.625 23.6821 15.5153 23.4171 15.3199 23.2218C15.1246 23.0264 14.8596 22.9167 14.5833 22.9167H10.4167C10.1404 22.9167 9.87545 23.0264 9.6801 23.2218C9.48475 23.4171 9.375 23.6821 9.375 23.9583C9.375 24.2346 9.48475 24.4996 9.6801 24.6949C9.87545 24.8903 10.1404 25 10.4167 25H14.5833C14.8596 25 15.1246 24.8903 15.3199 24.6949C15.5153 24.4996 15.625 24.2346 15.625 23.9583ZM20.8333 19.7917V5.20833C20.8333 4.93207 20.7236 4.66711 20.5282 4.47176C20.3329 4.27641 20.0679 4.16667 19.7917 4.16667H5.20833C4.93207 4.16667 4.66711 4.27641 4.47176 4.47176C4.27641 4.66711 4.16667 4.93207 4.16667 5.20833V19.7917C4.16667 20.0679 4.27641 20.3329 4.47176 20.5282C4.66711 20.7236 4.93207 20.8333 5.20833 20.8333H19.7917C20.0679 20.8333 20.3329 20.7236 20.5282 20.5282C20.7236 20.3329 20.8333 20.0679 20.8333 19.7917Z" fill="#D90429"/>
</g>
<defs>
<clipPath id="clip0_8_71">
<rect width="25" height="25" fill="white"/>
</clipPath>
</defs>
</svg>
