<svg width="24" height="24" viewBox="0 0 24 24" fill="none" xmlns="http://www.w3.org/2000/svg">
<g clip-path="url(#clip0_22_497)">
<path d="M23.356 9.48L19.855 3.48C18.962 1.95 17.308 1 15.537 1H8.46501C6.69401 1 5.03901 1.951 4.14601 3.48L0.646009 9.48C-0.260991 11.034 -0.260991 12.965 0.646009 14.519L4.14601 20.519C5.03901 22.049 6.69301 22.999 8.46501 22.999H15.537C17.308 22.999 18.963 22.048 19.856 20.519L23.356 14.519C24.262 12.965 24.262 11.034 23.356 9.48ZM18.2 10.511L13.774 14.856C12.991 15.624 11.983 16.007 10.975 16.007C9.97701 16.007 8.97801 15.631 8.19801 14.878L6.29901 13.01C5.90501 12.623 5.90001 11.99 6.28701 11.596C6.67401 11.201 7.30601 11.196 7.70101 11.584L9.59401 13.445C10.372 14.195 11.596 14.191 12.375 13.427L16.8 9.083C17.193 8.695 17.824 8.702 18.214 9.096C18.601 9.49 18.595 10.124 18.2 10.511Z" fill="#D90429"/>
</g>
<defs>
<clipPath id="clip0_22_497">
<rect width="24" height="24" fill="white"/>
</clipPath>
</defs>
</svg>
