<svg width="24" height="24" viewBox="0 0 24 24" fill="none" xmlns="http://www.w3.org/2000/svg">
<g clip-path="url(#clip0_22_482)">
<path d="M0 6.23798C0 13.8756 10.13 23.9924 17.76 23.9924C19.43 23.9924 20.99 23.3626 22.14 22.213L23.14 21.0633C24.3 19.9037 24.3 17.9443 23.09 16.7347C23.06 16.7047 20.65 14.8553 20.65 14.8553C19.45 13.7156 17.56 13.7156 16.37 14.8553L14.91 16.0249C11.71 14.6653 9.44 12.3861 7.98 9.07709L9.14 7.61755C10.29 6.42792 10.29 4.52851 9.14 3.33889C9.14 3.33889 7.29 0.929639 7.26 0.899648C6.05 -0.309974 4.09 -0.309974 2.88 0.899648L1.83 1.80936C0.630001 2.99899 0 4.55851 0 6.22798V6.23798Z" fill="#D90429"/>
</g>
<defs>
<clipPath id="clip0_22_482">
<rect width="24" height="24" fill="white" transform="matrix(-1 0 0 1 24 0)"/>
</clipPath>
</defs>
</svg>
