<svg width="24" height="24" viewBox="0 0 24 24" fill="none" xmlns="http://www.w3.org/2000/svg">
<g clip-path="url(#clip0_22_470)">
<path d="M22.824 17.179L21.213 15.568L18.891 17.89C18.696 18.085 18.44 18.183 18.184 18.183C17.928 18.183 17.672 18.085 17.477 17.89C17.086 17.499 17.086 16.867 17.477 16.476L19.799 14.154L18.385 12.74L16.062 15.063C15.867 15.258 15.611 15.356 15.355 15.356C15.099 15.356 14.843 15.258 14.648 15.063C14.257 14.672 14.257 14.04 14.648 13.649L16.971 11.326L15.557 9.912L13.234 12.235C13.039 12.43 12.783 12.528 12.527 12.528C12.271 12.528 12.015 12.43 11.82 12.235C11.429 11.844 11.429 11.212 11.82 10.821L14.143 8.498L12.728 7.084L10.406 9.406C10.211 9.601 9.955 9.699 9.699 9.699C9.443 9.699 9.187 9.601 8.992 9.406C8.601 9.015 8.601 8.383 8.992 7.992L11.314 5.67L9.848 4.204L7.525 6.527C7.33 6.722 7.074 6.82 6.818 6.82C6.562 6.82 6.306 6.722 6.111 6.527C5.72 6.136 5.72 5.504 6.111 5.113L8.434 2.79L6.823 1.179C5.656 0.0119994 3.986 -0.322001 2.467 0.310999C0.945 0.94 0 2.354 0 4.002V18.993C0 21.754 2.246 24 5.007 24H19.998C21.644 24 23.059 23.055 23.689 21.533C24.319 20.011 23.988 18.344 22.824 17.179ZM12.424 17.383C12.269 17.757 11.904 18 11.5 18H7C6.448 18 6 17.553 6 17V12.5C6 12.096 6.244 11.73 6.617 11.576C6.991 11.419 7.421 11.506 7.707 11.793L12.207 16.293C12.493 16.579 12.579 17.009 12.424 17.383Z" fill="#D90429"/>
</g>
<defs>
<clipPath id="clip0_22_470">
<rect width="24" height="24" fill="white"/>
</clipPath>
</defs>
</svg>
