<svg width="191" height="60" viewBox="0 0 191 60" fill="none" xmlns="http://www.w3.org/2000/svg">
<g clip-path="url(#clip0_2007_548)">
<mask id="mask0_2007_548" style="mask-type:luminance" maskUnits="userSpaceOnUse" x="13" y="10" width="18" height="18">
<path d="M31 10H13V28H31V10Z" fill="white"/>
</mask>
<g mask="url(#mask0_2007_548)">
<path d="M22 10C22.3056 14.8384 26.1616 18.6945 31 19C26.1616 19.3056 22.3056 23.1616 22 28C21.6945 23.1616 17.8384 19.3056 13 19C17.8384 18.6945 21.6945 14.8384 22 10Z" fill="#D90429"/>
</g>
</g>
<path d="M0.308 51.14V47.78C0.905333 47.78 1.38133 47.668 1.736 47.444C2.10933 47.2013 2.39867 46.8747 2.604 46.464C2.828 46.0347 2.98667 45.5587 3.08 45.036C3.192 44.476 3.26667 43.9067 3.304 43.328C3.36 42.7307 3.39733 42.1427 3.416 41.564C3.45333 40.9853 3.472 40.4627 3.472 39.996L3.584 31.204H17.332V51H13.86V34.396H6.916L6.804 39.632C6.78533 41.032 6.748 42.3667 6.692 43.636C6.65467 44.8867 6.524 46.016 6.3 47.024C6.076 48.032 5.656 48.872 5.04 49.544C4.536 50.104 3.91067 50.5053 3.164 50.748C2.436 50.972 1.484 51.1027 0.308 51.14ZM19.6628 51L27.2508 31.204H31.4228L38.9828 51H35.2028L33.8868 47.332H24.7588L23.4148 51H19.6628ZM25.8788 44.168H32.7388L29.3228 34.732L25.8788 44.168ZM47.8194 51.224C46.7741 51.224 45.7754 51.112 44.8234 50.888C43.8901 50.664 43.0407 50.3093 42.2754 49.824C41.5287 49.3387 40.9221 48.7133 40.4554 47.948C40.0074 47.1827 39.7554 46.2587 39.6994 45.176H43.0874C43.1621 45.6987 43.3394 46.1373 43.6194 46.492C43.9181 46.8467 44.2821 47.136 44.7114 47.36C45.1594 47.584 45.6541 47.7427 46.1954 47.836C46.7367 47.9293 47.2781 47.976 47.8194 47.976C48.2674 47.976 48.7341 47.948 49.2194 47.892C49.7234 47.8173 50.1901 47.6773 50.6194 47.472C51.0674 47.2667 51.4221 46.9773 51.6834 46.604C51.9634 46.212 52.1034 45.708 52.1034 45.092C52.1034 44.532 51.9914 44.0747 51.7674 43.72C51.5621 43.3653 51.2727 43.0947 50.8994 42.908C50.5261 42.7213 50.0874 42.5907 49.5834 42.516C49.0981 42.4413 48.5661 42.404 47.9874 42.404H45.2994V39.464H47.2034C47.7634 39.464 48.2954 39.4173 48.7994 39.324C49.3034 39.212 49.7421 39.0533 50.1154 38.848C50.5074 38.6427 50.8154 38.372 51.0394 38.036C51.2634 37.6813 51.3754 37.2613 51.3754 36.776C51.3754 36.048 51.1794 35.5067 50.7874 35.152C50.4141 34.7787 49.9381 34.5267 49.3594 34.396C48.7807 34.2467 48.2021 34.172 47.6234 34.172C46.9141 34.172 46.2607 34.2653 45.6634 34.452C45.0661 34.6387 44.5807 34.928 44.2074 35.32C43.8341 35.712 43.6287 36.2067 43.5914 36.804H40.2034C40.2221 35.8707 40.3994 35.0773 40.7354 34.424C41.0714 33.752 41.5101 33.2013 42.0514 32.772C42.5927 32.324 43.1994 31.9693 43.8714 31.708C44.5434 31.428 45.2341 31.232 45.9434 31.12C46.6527 31.008 47.3154 30.952 47.9314 30.952C48.7901 30.952 49.6207 31.0453 50.4234 31.232C51.2447 31.4187 51.9821 31.7267 52.6354 32.156C53.3074 32.5667 53.8394 33.1173 54.2314 33.808C54.6234 34.4987 54.8194 35.3293 54.8194 36.3C54.8194 36.7853 54.7447 37.2707 54.5954 37.756C54.4647 38.2413 54.2221 38.708 53.8674 39.156C53.5314 39.604 53.0181 40.0147 52.3274 40.388C53.4287 40.7053 54.2501 41.3027 54.7914 42.18C55.3514 43.0573 55.6314 44.0653 55.6314 45.204C55.6127 46.268 55.3794 47.1827 54.9314 47.948C54.5021 48.7133 53.9234 49.3387 53.1954 49.824C52.4674 50.2907 51.6367 50.6453 50.7034 50.888C49.7887 51.112 48.8274 51.224 47.8194 51.224ZM59.005 51V31.204H72.977V34.396H62.505V39.604H71.605V42.74H62.505V47.808H72.977V51H59.005ZM76.3136 51V31.204H83.7616C85.2549 31.204 86.5429 31.4373 87.6256 31.904C88.7269 32.352 89.5762 33.0707 90.1736 34.06C90.7896 35.0493 91.0976 36.3467 91.0976 37.952C91.0976 39.4827 90.7616 40.7613 90.0896 41.788C89.4176 42.8147 88.5029 43.5893 87.3456 44.112C86.1882 44.616 84.8629 44.868 83.3696 44.868H79.8136V51H76.3136ZM79.8136 41.732H83.3136C84.6016 41.732 85.6376 41.424 86.4216 40.808C87.2056 40.192 87.5976 39.2213 87.5976 37.896C87.5976 36.7387 87.2709 35.8707 86.6176 35.292C85.9642 34.6947 84.9562 34.396 83.5936 34.396H79.8136V41.732ZM93.9417 42.852V39.772H103.154V42.852H93.9417ZM107.212 51V31.204H110.712V39.716H113.568L119.14 31.204H123.116L116.508 40.892L123.144 51H119.056L113.736 42.908H110.712V51H107.212ZM125.614 51V31.204H133.062C134.556 31.204 135.844 31.4373 136.926 31.904C138.028 32.352 138.877 33.0707 139.474 34.06C140.09 35.0493 140.398 36.3467 140.398 37.952C140.398 39.4827 140.062 40.7613 139.39 41.788C138.718 42.8147 137.804 43.5893 136.646 44.112C135.489 44.616 134.164 44.868 132.67 44.868H129.114V51H125.614ZM129.114 41.732H132.614C133.902 41.732 134.938 41.424 135.722 40.808C136.506 40.192 136.898 39.2213 136.898 37.896C136.898 36.7387 136.572 35.8707 135.918 35.292C135.265 34.6947 134.257 34.396 132.894 34.396H129.114V41.732ZM143.607 51V31.204H147.107V38.82H150.215C151.148 38.82 152.053 38.904 152.931 39.072C153.827 39.24 154.629 39.5387 155.339 39.968C156.048 40.3787 156.608 40.9667 157.019 41.732C157.448 42.4787 157.663 43.4493 157.663 44.644C157.663 45.8573 157.448 46.8747 157.019 47.696C156.608 48.4987 156.029 49.152 155.283 49.656C154.555 50.1413 153.715 50.4867 152.763 50.692C151.811 50.8973 150.812 51 149.767 51H143.607ZM147.107 47.808H149.683C150.28 47.808 150.849 47.7707 151.391 47.696C151.932 47.6027 152.408 47.4533 152.819 47.248C153.248 47.024 153.584 46.716 153.827 46.324C154.069 45.9133 154.191 45.3907 154.191 44.756C154.191 44.1213 154.069 43.6173 153.827 43.244C153.603 42.852 153.276 42.5627 152.847 42.376C152.436 42.1893 151.969 42.068 151.447 42.012C150.924 41.956 150.383 41.928 149.823 41.928H147.107V47.808ZM160.351 51V31.204H163.823V51H160.351ZM168.243 51V31.204H173.003L178.547 41.2L184.063 31.204H188.655V51H185.183V35.544L179.219 46.352H177.763L171.743 35.544V51H168.243Z" fill="white"/>
<path d="M36.737 11V5.203H41.544V11H40.609V6.028H37.672V11H36.737ZM43.0212 13.09V5.203H43.9122L43.9562 6.094C44.1542 5.77867 44.4218 5.54033 44.7592 5.379C45.1038 5.21767 45.4742 5.137 45.8702 5.137C46.4568 5.137 46.9372 5.269 47.3112 5.533C47.6852 5.78967 47.9602 6.14167 48.1362 6.589C48.3195 7.03633 48.4112 7.54233 48.4112 8.107C48.4112 8.67167 48.3195 9.17767 48.1362 9.625C47.9528 10.0723 47.6705 10.4243 47.2892 10.681C46.9078 10.9377 46.4202 11.066 45.8262 11.066C45.5328 11.066 45.2688 11.0367 45.0342 10.978C44.7995 10.912 44.5942 10.8203 44.4182 10.703C44.2422 10.5857 44.0882 10.4537 43.9562 10.307V13.09H43.0212ZM45.7492 10.241C46.1745 10.241 46.5118 10.1457 46.7612 9.955C47.0105 9.757 47.1902 9.49667 47.3002 9.174C47.4175 8.85133 47.4762 8.49567 47.4762 8.107C47.4762 7.711 47.4175 7.35167 47.3002 7.029C47.1902 6.70633 47.0068 6.44967 46.7502 6.259C46.4935 6.06833 46.1525 5.973 45.7272 5.973C45.3458 5.973 45.0195 6.072 44.7482 6.27C44.4842 6.46067 44.2825 6.721 44.1432 7.051C44.0038 7.37367 43.9342 7.72933 43.9342 8.118C43.9342 8.52133 44.0002 8.88433 44.1322 9.207C44.2642 9.52967 44.4658 9.78267 44.7372 9.966C45.0085 10.1493 45.3458 10.241 45.7492 10.241ZM52.1469 11.066C51.5382 11.066 51.0285 10.9413 50.6179 10.692C50.2072 10.4353 49.8992 10.0833 49.6939 9.636C49.4959 9.18867 49.3969 8.679 49.3969 8.107C49.3969 7.52767 49.4959 7.018 49.6939 6.578C49.8992 6.13067 50.2072 5.77867 50.6179 5.522C51.0285 5.26533 51.5455 5.137 52.1689 5.137C52.7775 5.137 53.2835 5.26533 53.6869 5.522C54.0975 5.77867 54.4019 6.13067 54.5999 6.578C54.8052 7.018 54.9079 7.52767 54.9079 8.107C54.9079 8.679 54.8052 9.18867 54.5999 9.636C54.3945 10.0833 54.0865 10.4353 53.6759 10.692C53.2725 10.9413 52.7629 11.066 52.1469 11.066ZM52.1469 10.241C52.5722 10.241 52.9169 10.1457 53.1809 9.955C53.4522 9.76433 53.6502 9.50767 53.7749 9.185C53.9069 8.86233 53.9729 8.503 53.9729 8.107C53.9729 7.711 53.9069 7.35167 53.7749 7.029C53.6502 6.70633 53.4522 6.44967 53.1809 6.259C52.9169 6.06833 52.5722 5.973 52.1469 5.973C51.7289 5.973 51.3842 6.06833 51.1129 6.259C50.8489 6.44967 50.6509 6.70633 50.5189 7.029C50.3942 7.35167 50.3319 7.711 50.3319 8.107C50.3319 8.503 50.3942 8.86233 50.5189 9.185C50.6509 9.50767 50.8489 9.76433 51.1129 9.955C51.3842 10.1457 51.7289 10.241 52.1469 10.241ZM56.1589 11V5.203H57.0939V9.647C57.1452 9.54433 57.2149 9.43433 57.3029 9.317C57.3909 9.19233 57.4605 9.097 57.5119 9.031L60.3169 5.203H61.2409V11H60.3059V6.556C60.2472 6.666 60.1812 6.76867 60.1079 6.864C60.0419 6.95933 59.9795 7.04733 59.9209 7.128L57.0719 11H56.1589ZM64.8126 11.066C64.5339 11.066 64.2553 11.0403 63.9766 10.989C63.6979 10.9377 63.4376 10.8533 63.1956 10.736C62.9609 10.6113 62.7703 10.4463 62.6236 10.241C62.4769 10.0283 62.3963 9.76433 62.3816 9.449H63.2946C63.3313 9.647 63.4376 9.80467 63.6136 9.922C63.7896 10.0393 63.9876 10.1237 64.2076 10.175C64.4349 10.219 64.6366 10.241 64.8126 10.241C65.0179 10.241 65.2269 10.219 65.4396 10.175C65.6596 10.131 65.8429 10.043 65.9896 9.911C66.1436 9.779 66.2206 9.58467 66.2206 9.328C66.2206 9.07867 66.1583 8.89533 66.0336 8.778C65.9163 8.66067 65.7586 8.58367 65.5606 8.547C65.3699 8.51033 65.1609 8.492 64.9336 8.492H63.8996V7.667H64.7466C64.8859 7.667 65.0289 7.656 65.1756 7.634C65.3223 7.60467 65.4579 7.56067 65.5826 7.502C65.7073 7.436 65.8063 7.34433 65.8796 7.227C65.9603 7.10967 66.0006 6.95933 66.0006 6.776C66.0006 6.57067 65.9419 6.40933 65.8246 6.292C65.7073 6.17467 65.5569 6.094 65.3736 6.05C65.1903 5.99867 65.0033 5.973 64.8126 5.973C64.6366 5.973 64.4496 5.99133 64.2516 6.028C64.0609 6.06467 63.8959 6.138 63.7566 6.248C63.6173 6.35067 63.5329 6.50467 63.5036 6.71H62.5796C62.5943 6.314 62.7153 6.00233 62.9426 5.775C63.1699 5.54767 63.4523 5.38633 63.7896 5.291C64.1269 5.18833 64.4643 5.137 64.8016 5.137C65.0583 5.137 65.3113 5.16267 65.5606 5.214C65.8099 5.26533 66.0373 5.35333 66.2426 5.478C66.4479 5.59533 66.6093 5.753 66.7266 5.951C66.8513 6.149 66.9136 6.39467 66.9136 6.688C66.9136 6.952 66.8513 7.18667 66.7266 7.392C66.6019 7.59733 66.4113 7.76233 66.1546 7.887C66.5286 8.00433 66.7889 8.18767 66.9356 8.437C67.0823 8.68633 67.1556 8.98333 67.1556 9.328C67.1556 9.636 67.0896 9.9 66.9576 10.12C66.8256 10.3327 66.6459 10.5123 66.4186 10.659C66.1986 10.7983 65.9493 10.901 65.6706 10.967C65.3919 11.033 65.1059 11.066 64.8126 11.066ZM68.362 11V5.203H70.606C70.8627 5.203 71.1157 5.22133 71.365 5.258C71.6217 5.28733 71.8527 5.35333 72.058 5.456C72.2707 5.55133 72.4393 5.69433 72.564 5.885C72.696 6.07567 72.762 6.32867 72.762 6.644C72.762 6.83467 72.7327 7.01067 72.674 7.172C72.6153 7.326 72.5273 7.46167 72.41 7.579C72.3 7.69633 72.157 7.799 71.981 7.887C72.377 7.975 72.663 8.14733 72.839 8.404C73.015 8.66067 73.103 8.954 73.103 9.284C73.103 9.57733 73.048 9.834 72.938 10.054C72.8353 10.2667 72.6887 10.4427 72.498 10.582C72.3147 10.7213 72.0983 10.8277 71.849 10.901C71.607 10.967 71.3467 11 71.068 11H68.362ZM69.319 10.186H70.848C71.0753 10.186 71.288 10.164 71.486 10.12C71.684 10.076 71.8453 9.99533 71.97 9.878C72.0947 9.75333 72.157 9.57733 72.157 9.35C72.157 9.11533 72.102 8.93933 71.992 8.822C71.8893 8.69733 71.7537 8.613 71.585 8.569C71.4237 8.51767 71.2477 8.48833 71.057 8.481C70.8663 8.47367 70.6867 8.47 70.518 8.47H69.319V10.186ZM69.319 7.678H70.122C70.2687 7.678 70.4373 7.67067 70.628 7.656C70.826 7.64133 71.0167 7.60833 71.2 7.557C71.3907 7.49833 71.5447 7.41033 71.662 7.293C71.7867 7.17567 71.849 7.01433 71.849 6.809C71.849 6.53767 71.772 6.35067 71.618 6.248C71.4713 6.138 71.2953 6.07567 71.09 6.061C70.8847 6.039 70.694 6.028 70.518 6.028H69.319V7.678ZM76.9076 11.066C76.299 11.066 75.7893 10.9413 75.3786 10.692C74.968 10.4353 74.66 10.0833 74.4546 9.636C74.2566 9.18867 74.1576 8.679 74.1576 8.107C74.1576 7.52767 74.2566 7.018 74.4546 6.578C74.66 6.13067 74.968 5.77867 75.3786 5.522C75.7893 5.26533 76.3063 5.137 76.9296 5.137C77.5383 5.137 78.0443 5.26533 78.4476 5.522C78.8583 5.77867 79.1626 6.13067 79.3606 6.578C79.566 7.018 79.6686 7.52767 79.6686 8.107C79.6686 8.679 79.566 9.18867 79.3606 9.636C79.1553 10.0833 78.8473 10.4353 78.4366 10.692C78.0333 10.9413 77.5236 11.066 76.9076 11.066ZM76.9076 10.241C77.333 10.241 77.6776 10.1457 77.9416 9.955C78.213 9.76433 78.411 9.50767 78.5356 9.185C78.6676 8.86233 78.7336 8.503 78.7336 8.107C78.7336 7.711 78.6676 7.35167 78.5356 7.029C78.411 6.70633 78.213 6.44967 77.9416 6.259C77.6776 6.06833 77.333 5.973 76.9076 5.973C76.4896 5.973 76.145 6.06833 75.8736 6.259C75.6096 6.44967 75.4116 6.70633 75.2796 7.029C75.155 7.35167 75.0926 7.711 75.0926 8.107C75.0926 8.503 75.155 8.86233 75.2796 9.185C75.4116 9.50767 75.6096 9.76433 75.8736 9.955C76.145 10.1457 76.4896 10.241 76.9076 10.241ZM80.2957 12.782V10.186C80.5084 10.186 80.677 10.1273 80.8017 10.01C80.9337 9.89267 81.0364 9.73867 81.1097 9.548C81.183 9.35733 81.238 9.152 81.2747 8.932C81.3114 8.70467 81.3407 8.48833 81.3627 8.283C81.3994 7.94567 81.4214 7.612 81.4287 7.282C81.4434 6.94467 81.4507 6.677 81.4507 6.479C81.458 6.26633 81.4617 6.05367 81.4617 5.841C81.4617 5.62833 81.4617 5.41567 81.4617 5.203H85.5757V10.186H86.3347V12.782H85.4327V11H81.1977V12.782H80.2957ZM81.7807 10.186H84.6407V6.028H82.3527C82.3454 6.336 82.338 6.68067 82.3307 7.062C82.3234 7.44333 82.3087 7.799 82.2867 8.129C82.2794 8.31967 82.261 8.536 82.2317 8.778C82.2097 9.02 82.1657 9.26567 82.0997 9.515C82.0337 9.757 81.9274 9.98067 81.7807 10.186ZM89.7862 11.066C89.1776 11.066 88.6716 10.9413 88.2682 10.692C87.8722 10.4353 87.5752 10.0833 87.3772 9.636C87.1866 9.18867 87.0912 8.68267 87.0912 8.118C87.0912 7.568 87.1902 7.06933 87.3882 6.622C87.5936 6.16733 87.9016 5.808 88.3122 5.544C88.7302 5.27267 89.2582 5.137 89.8962 5.137C90.2922 5.137 90.6442 5.203 90.9522 5.335C91.2676 5.467 91.5279 5.66133 91.7332 5.918C91.9386 6.16733 92.0816 6.48267 92.1622 6.864H91.2052C91.0952 6.54133 90.9192 6.314 90.6772 6.182C90.4426 6.04267 90.1639 5.973 89.8412 5.973C89.4012 5.973 89.0492 6.07567 88.7852 6.281C88.5212 6.48633 88.3269 6.754 88.2022 7.084C88.0849 7.40667 88.0262 7.75133 88.0262 8.118C88.0262 8.49933 88.0886 8.85133 88.2132 9.174C88.3379 9.49667 88.5322 9.757 88.7962 9.955C89.0602 10.1457 89.4012 10.241 89.8192 10.241C90.1272 10.241 90.4169 10.175 90.6882 10.043C90.9669 9.911 91.1502 9.67633 91.2382 9.339H92.2062C92.1329 9.735 91.9752 10.0613 91.7332 10.318C91.4986 10.5747 91.2089 10.7653 90.8642 10.89C90.5269 11.0073 90.1676 11.066 89.7862 11.066ZM94.7443 11V6.028H92.7533V5.203H97.6703V6.028H95.6793V11H94.7443ZM98.5046 11V5.203H100.749C101.005 5.203 101.258 5.22133 101.508 5.258C101.764 5.28733 101.995 5.35333 102.201 5.456C102.413 5.55133 102.582 5.69433 102.707 5.885C102.839 6.07567 102.905 6.32867 102.905 6.644C102.905 6.83467 102.875 7.01067 102.817 7.172C102.758 7.326 102.67 7.46167 102.553 7.579C102.443 7.69633 102.3 7.799 102.124 7.887C102.52 7.975 102.806 8.14733 102.982 8.404C103.158 8.66067 103.246 8.954 103.246 9.284C103.246 9.57733 103.191 9.834 103.081 10.054C102.978 10.2667 102.831 10.4427 102.641 10.582C102.457 10.7213 102.241 10.8277 101.992 10.901C101.75 10.967 101.489 11 101.211 11H98.5046ZM99.4616 10.186H100.991C101.218 10.186 101.431 10.164 101.629 10.12C101.827 10.076 101.988 9.99533 102.113 9.878C102.237 9.75333 102.3 9.57733 102.3 9.35C102.3 9.11533 102.245 8.93933 102.135 8.822C102.032 8.69733 101.896 8.613 101.728 8.569C101.566 8.51767 101.39 8.48833 101.2 8.481C101.009 8.47367 100.829 8.47 100.661 8.47H99.4616V10.186ZM99.4616 7.678H100.265C100.411 7.678 100.58 7.67067 100.771 7.656C100.969 7.64133 101.159 7.60833 101.343 7.557C101.533 7.49833 101.687 7.41033 101.805 7.293C101.929 7.17567 101.992 7.01433 101.992 6.809C101.992 6.53767 101.915 6.35067 101.761 6.248C101.614 6.138 101.438 6.07567 101.233 6.061C101.027 6.039 100.837 6.028 100.661 6.028H99.4616V7.678ZM107.028 11.066C106.412 11.066 105.903 10.9413 105.499 10.692C105.096 10.4353 104.795 10.0833 104.597 9.636C104.399 9.18867 104.3 8.679 104.3 8.107C104.3 7.52767 104.403 7.018 104.608 6.578C104.821 6.13067 105.129 5.77867 105.532 5.522C105.936 5.26533 106.431 5.137 107.017 5.137C107.45 5.137 107.828 5.22133 108.15 5.39C108.48 5.55133 108.752 5.77133 108.964 6.05C109.184 6.32867 109.342 6.64033 109.437 6.985C109.54 7.32967 109.584 7.68533 109.569 8.052C109.562 8.118 109.558 8.184 109.558 8.25C109.558 8.316 109.555 8.382 109.547 8.448H105.246C105.276 8.78533 105.36 9.08967 105.499 9.361C105.639 9.63233 105.837 9.84867 106.093 10.01C106.35 10.164 106.669 10.241 107.05 10.241C107.241 10.241 107.432 10.219 107.622 10.175C107.82 10.1237 107.996 10.0393 108.15 9.922C108.312 9.80467 108.425 9.647 108.491 9.449H109.448C109.36 9.823 109.195 10.131 108.953 10.373C108.711 10.6077 108.422 10.7837 108.084 10.901C107.747 11.011 107.395 11.066 107.028 11.066ZM105.268 7.634H108.623C108.616 7.304 108.543 7.01433 108.403 6.765C108.264 6.51567 108.073 6.32133 107.831 6.182C107.597 6.04267 107.314 5.973 106.984 5.973C106.625 5.973 106.321 6.05 106.071 6.204C105.829 6.358 105.642 6.55967 105.51 6.809C105.378 7.05833 105.298 7.33333 105.268 7.634ZM110.826 11V5.203H111.761V7.744H114.665V5.203H115.6V11H114.665V8.569H111.761V11H110.826ZM117.078 11V5.203H118.013V7.744H120.917V5.203H121.852V11H120.917V8.569H118.013V11H117.078ZM125.189 11.066C124.925 11.066 124.668 11.033 124.419 10.967C124.177 10.8937 123.957 10.7873 123.759 10.648C123.568 10.5013 123.414 10.3217 123.297 10.109C123.187 9.889 123.132 9.636 123.132 9.35C123.132 9.02 123.19 8.74133 123.308 8.514C123.432 8.28667 123.597 8.107 123.803 7.975C124.008 7.843 124.246 7.74767 124.518 7.689C124.789 7.63033 125.071 7.601 125.365 7.601H127.07C127.07 7.271 127.022 6.985 126.927 6.743C126.839 6.501 126.692 6.314 126.487 6.182C126.281 6.04267 126.01 5.973 125.673 5.973C125.467 5.973 125.277 5.995 125.101 6.039C124.925 6.083 124.774 6.15267 124.65 6.248C124.525 6.34333 124.433 6.47167 124.375 6.633H123.374C123.425 6.369 123.524 6.14533 123.671 5.962C123.825 5.77133 124.008 5.61733 124.221 5.5C124.441 5.37533 124.675 5.28367 124.925 5.225C125.174 5.16633 125.423 5.137 125.673 5.137C126.23 5.137 126.677 5.25067 127.015 5.478C127.352 5.698 127.598 6.01333 127.752 6.424C127.906 6.82733 127.983 7.30767 127.983 7.865V11H127.202L127.147 10.263C126.985 10.483 126.791 10.6517 126.564 10.769C126.336 10.8863 126.102 10.9633 125.86 11C125.625 11.044 125.401 11.066 125.189 11.066ZM125.277 10.241C125.643 10.241 125.959 10.1823 126.223 10.065C126.494 9.94033 126.703 9.76067 126.85 9.526C126.996 9.29133 127.07 9.00533 127.07 8.668V8.382H126.047C125.805 8.382 125.566 8.38567 125.332 8.393C125.097 8.40033 124.884 8.42967 124.694 8.481C124.503 8.53233 124.349 8.62033 124.232 8.745C124.122 8.86967 124.067 9.04933 124.067 9.284C124.067 9.504 124.122 9.68367 124.232 9.823C124.349 9.96233 124.499 10.0687 124.683 10.142C124.873 10.208 125.071 10.241 125.277 10.241ZM129.068 11L130.575 8.712C130.157 8.59467 129.827 8.404 129.585 8.14C129.343 7.86867 129.222 7.50933 129.222 7.062C129.222 6.71 129.274 6.41667 129.376 6.182C129.479 5.94 129.629 5.74933 129.827 5.61C130.025 5.46333 130.264 5.36067 130.542 5.302C130.821 5.236 131.14 5.203 131.499 5.203H133.831V11H132.896V8.855H131.565L130.157 11H129.068ZM132.203 8.041H132.896V6.028H131.653C131.433 6.028 131.232 6.039 131.048 6.061C130.865 6.083 130.707 6.13067 130.575 6.204C130.451 6.27 130.352 6.369 130.278 6.501C130.205 6.62567 130.168 6.798 130.168 7.018C130.168 7.26 130.227 7.45067 130.344 7.59C130.469 7.72933 130.627 7.832 130.817 7.898C131.015 7.95667 131.235 7.997 131.477 8.019C131.719 8.03367 131.961 8.041 132.203 8.041ZM138.272 11V5.203H139.207V7.7H140.219L141.935 5.203H143.002L141.066 7.964L143.167 11H142.067L140.329 8.514H139.207V11H138.272ZM146.399 11.066C145.79 11.066 145.281 10.9413 144.87 10.692C144.459 10.4353 144.151 10.0833 143.946 9.636C143.748 9.18867 143.649 8.679 143.649 8.107C143.649 7.52767 143.748 7.018 143.946 6.578C144.151 6.13067 144.459 5.77867 144.87 5.522C145.281 5.26533 145.798 5.137 146.421 5.137C147.03 5.137 147.536 5.26533 147.939 5.522C148.35 5.77867 148.654 6.13067 148.852 6.578C149.057 7.018 149.16 7.52767 149.16 8.107C149.16 8.679 149.057 9.18867 148.852 9.636C148.647 10.0833 148.339 10.4353 147.928 10.692C147.525 10.9413 147.015 11.066 146.399 11.066ZM146.399 10.241C146.824 10.241 147.169 10.1457 147.433 9.955C147.704 9.76433 147.902 9.50767 148.027 9.185C148.159 8.86233 148.225 8.503 148.225 8.107C148.225 7.711 148.159 7.35167 148.027 7.029C147.902 6.70633 147.704 6.44967 147.433 6.259C147.169 6.06833 146.824 5.973 146.399 5.973C145.981 5.973 145.636 6.06833 145.365 6.259C145.101 6.44967 144.903 6.70633 144.771 7.029C144.646 7.35167 144.584 7.711 144.584 8.107C144.584 8.503 144.646 8.86233 144.771 9.185C144.903 9.50767 145.101 9.76433 145.365 9.955C145.636 10.1457 145.981 10.241 146.399 10.241ZM150.411 11V5.203H151.665L153.546 8.107L155.394 5.203H156.626V11H155.702V6.237L153.656 9.515H153.392L151.335 6.237V11H150.411ZM158.102 11V5.203H162.909V11H161.974V6.028H159.037V11H158.102ZM166.245 11.066C165.981 11.066 165.725 11.033 165.475 10.967C165.233 10.8937 165.013 10.7873 164.815 10.648C164.625 10.5013 164.471 10.3217 164.353 10.109C164.243 9.889 164.188 9.636 164.188 9.35C164.188 9.02 164.247 8.74133 164.364 8.514C164.489 8.28667 164.654 8.107 164.859 7.975C165.065 7.843 165.303 7.74767 165.574 7.689C165.846 7.63033 166.128 7.601 166.421 7.601H168.126C168.126 7.271 168.079 6.985 167.983 6.743C167.895 6.501 167.749 6.314 167.543 6.182C167.338 6.04267 167.067 5.973 166.729 5.973C166.524 5.973 166.333 5.995 166.157 6.039C165.981 6.083 165.831 6.15267 165.706 6.248C165.582 6.34333 165.49 6.47167 165.431 6.633H164.43C164.482 6.369 164.581 6.14533 164.727 5.962C164.881 5.77133 165.065 5.61733 165.277 5.5C165.497 5.37533 165.732 5.28367 165.981 5.225C166.231 5.16633 166.48 5.137 166.729 5.137C167.287 5.137 167.734 5.25067 168.071 5.478C168.409 5.698 168.654 6.01333 168.808 6.424C168.962 6.82733 169.039 7.30767 169.039 7.865V11H168.258L168.203 10.263C168.042 10.483 167.848 10.6517 167.62 10.769C167.393 10.8863 167.158 10.9633 166.916 11C166.682 11.044 166.458 11.066 166.245 11.066ZM166.333 10.241C166.7 10.241 167.015 10.1823 167.279 10.065C167.551 9.94033 167.76 9.76067 167.906 9.526C168.053 9.29133 168.126 9.00533 168.126 8.668V8.382H167.103C166.861 8.382 166.623 8.38567 166.388 8.393C166.154 8.40033 165.941 8.42967 165.75 8.481C165.56 8.53233 165.406 8.62033 165.288 8.745C165.178 8.86967 165.123 9.04933 165.123 9.284C165.123 9.504 165.178 9.68367 165.288 9.823C165.406 9.96233 165.556 10.0687 165.739 10.142C165.93 10.208 166.128 10.241 166.333 10.241ZM170.488 11V5.203H171.423V7.744H174.327V5.203H175.262V11H174.327V8.569H171.423V11H170.488ZM176.74 11V5.203H177.675V9.647C177.726 9.54433 177.796 9.43433 177.884 9.317C177.972 9.19233 178.042 9.097 178.093 9.031L180.898 5.203H181.822V11H180.887V6.556C180.828 6.666 180.762 6.76867 180.689 6.864C180.623 6.95933 180.561 7.04733 180.502 7.128L177.653 11H176.74ZM182.93 11L184.437 8.712C184.019 8.59467 183.689 8.404 183.447 8.14C183.205 7.86867 183.084 7.50933 183.084 7.062C183.084 6.71 183.135 6.41667 183.238 6.182C183.34 5.94 183.491 5.74933 183.689 5.61C183.887 5.46333 184.125 5.36067 184.404 5.302C184.682 5.236 185.001 5.203 185.361 5.203H187.693V11H186.758V8.855H185.427L184.019 11H182.93ZM186.065 8.041H186.758V6.028H185.515C185.295 6.028 185.093 6.039 184.91 6.061C184.726 6.083 184.569 6.13067 184.437 6.204C184.312 6.27 184.213 6.369 184.14 6.501C184.066 6.62567 184.03 6.798 184.03 7.018C184.03 7.26 184.088 7.45067 184.206 7.59C184.33 7.72933 184.488 7.832 184.679 7.898C184.877 7.95667 185.097 7.997 185.339 8.019C185.581 8.03367 185.823 8.041 186.065 8.041Z" fill="#EDF2F4"/>
<rect x="36" y="18" width="154" height="2" fill="#D90429"/>
<defs>
<clipPath id="clip0_2007_548">
<rect width="18" height="18" fill="white" transform="translate(13 10)"/>
</clipPath>
</defs>
</svg>
