<svg width="42" height="42" viewBox="0 0 42 42" fill="none" xmlns="http://www.w3.org/2000/svg">
<g opacity="0.61">
<path d="M13.168 40.2259H13.303C13.409 40.2259 13.4805 40.2941 13.4805 40.3917C13.4805 40.4892 13.409 40.5574 13.303 40.5574H13.168V40.2259ZM13.301 40.5271C13.3891 40.5271 13.4459 40.4712 13.4459 40.3917C13.4459 40.3121 13.3891 40.2562 13.301 40.2562H13.203V40.5271H13.301Z" fill="white"/>
<path d="M13.8721 40.3915C13.8721 40.2949 13.9459 40.2229 14.0464 40.2229C14.1458 40.2229 14.2202 40.2944 14.2202 40.3915C14.2202 40.4886 14.1458 40.5601 14.0464 40.5601C13.946 40.5601 13.8721 40.4882 13.8721 40.3915ZM14.1851 40.3915C14.1851 40.3124 14.1259 40.2541 14.0464 40.2541C13.9663 40.2541 13.9067 40.3124 13.9067 40.3915C13.9067 40.4705 13.9663 40.5288 14.0464 40.5288C14.126 40.5288 14.1851 40.4706 14.1851 40.3915Z" fill="white"/>
<path d="M15.0864 40.2258L14.9746 40.5573H14.9376L14.8405 40.2746L14.743 40.5573H14.7065L14.5947 40.2258H14.6308L14.7264 40.5109L14.8254 40.2258H14.8581L14.9556 40.5123L15.0527 40.2258H15.0864Z" fill="white"/>
<path d="M15.7702 40.2258V40.5573H15.7413L15.5282 40.2883V40.5573H15.4932V40.2258H15.5221L15.7357 40.4948V40.2258H15.7702Z" fill="white"/>
<path d="M16.2207 40.2258H16.2557V40.527H16.4414V40.5573H16.2207V40.2258Z" fill="white"/>
<path d="M16.8057 40.3915C16.8057 40.2949 16.8795 40.2229 16.98 40.2229C17.0794 40.2229 17.1538 40.2944 17.1538 40.3915C17.1538 40.4886 17.0794 40.5601 16.98 40.5601C16.8796 40.5601 16.8057 40.4882 16.8057 40.3915ZM17.1187 40.3915C17.1187 40.3124 17.0595 40.2541 16.98 40.2541C16.8999 40.2541 16.8403 40.3124 16.8403 40.3915C16.8403 40.4705 16.8999 40.5288 16.98 40.5288C17.0595 40.5288 17.1187 40.4706 17.1187 40.3915Z" fill="white"/>
<path d="M17.7776 40.4687H17.5929L17.5531 40.5572H17.5166L17.6681 40.2257H17.7027L17.8543 40.5572H17.8173L17.7776 40.4687ZM17.7648 40.4403L17.6853 40.2622L17.6057 40.4403H17.7648Z" fill="white"/>
<path d="M18.252 40.2258H18.3869C18.493 40.2258 18.5645 40.294 18.5645 40.3916C18.5645 40.4891 18.493 40.5573 18.3869 40.5573H18.252V40.2258ZM18.385 40.527C18.4731 40.527 18.5299 40.4711 18.5299 40.3916C18.5299 40.312 18.473 40.2561 18.385 40.2561H18.287V40.527H18.385Z" fill="white"/>
<path d="M19.6594 40.4687H19.4747L19.4349 40.5572H19.3984L19.55 40.2257H19.5846L19.7361 40.5572H19.6992L19.6594 40.4687ZM19.6467 40.4403L19.5671 40.2622L19.4876 40.4403H19.6467Z" fill="white"/>
<path d="M20.1338 40.2258H20.1688V40.527H20.3545V40.5573H20.1338V40.2258Z" fill="white"/>
<path d="M20.7549 40.2258H20.7899V40.527H20.9756V40.5573H20.7549V40.2258Z" fill="white"/>
<path d="M21.8778 40.2561V40.3864H22.0492V40.4167H21.8778V40.5574H21.8428V40.2258H22.0701V40.2562L21.8778 40.2561Z" fill="white"/>
<path d="M22.4854 40.2258H22.5204V40.5573H22.4854V40.2258Z" fill="white"/>
<path d="M22.9707 40.2258H23.0057V40.527H23.1914V40.5573H22.9707V40.2258Z" fill="white"/>
<path d="M23.8262 40.527V40.5573H23.5918V40.2258H23.8191V40.2561H23.6268V40.374H23.7983V40.4038H23.6268V40.527H23.8262Z" fill="white"/>
<path d="M24.7528 40.2561V40.3864H24.9242V40.4167H24.7528V40.5574H24.7178V40.2258H24.9451V40.2562L24.7528 40.2561Z" fill="white"/>
<path d="M25.3262 40.3915C25.3262 40.2949 25.4 40.2229 25.5005 40.2229C25.5999 40.2229 25.6743 40.2944 25.6743 40.3915C25.6743 40.4886 25.5999 40.5601 25.5005 40.5601C25.4 40.5601 25.3262 40.4882 25.3262 40.3915ZM25.6392 40.3915C25.6392 40.3124 25.5799 40.2541 25.5004 40.2541C25.4203 40.2541 25.3607 40.3124 25.3607 40.3915C25.3607 40.4705 25.4203 40.5288 25.5004 40.5288C25.58 40.5288 25.6392 40.4706 25.6392 40.3915Z" fill="white"/>
<path d="M26.3221 40.5573L26.2463 40.4507C26.2377 40.4516 26.2293 40.4521 26.2198 40.4521H26.1307V40.5573H26.0957V40.2258H26.2198C26.3041 40.2258 26.3553 40.2683 26.3553 40.3394C26.3553 40.3915 26.3278 40.4279 26.2795 40.4436L26.3605 40.5572H26.3221V40.5573ZM26.3202 40.3394C26.3202 40.2863 26.2851 40.2561 26.2188 40.2561H26.1307V40.4223H26.2188C26.2851 40.4223 26.3202 40.3915 26.3202 40.3394Z" fill="white"/>
<path d="M27.1246 40.2258V40.5573H27.091V40.292L26.9607 40.5151H26.9442L26.8139 40.2935V40.5572H26.7803V40.2257H26.8092L26.9531 40.4715L27.0957 40.2257L27.1246 40.2258Z" fill="white"/>
<path d="M27.7834 40.4687H27.5987L27.5589 40.5572H27.5225L27.674 40.2257H27.7085L27.8601 40.5572H27.8231L27.7834 40.4687ZM27.7706 40.4403L27.691 40.2622L27.6115 40.4403H27.7706Z" fill="white"/>
<path d="M28.305 40.2561H28.1885V40.2258H28.4566V40.2561H28.3401V40.5573H28.3051V40.2561H28.305Z" fill="white"/>
<path d="M28.8174 40.5171L28.8312 40.4901C28.8548 40.5133 28.897 40.5303 28.9405 40.5303C29.0026 40.5303 29.0296 40.5043 29.0296 40.4716C29.0296 40.3807 28.8254 40.4366 28.8254 40.314C28.8254 40.2652 28.8633 40.223 28.9477 40.223C28.9851 40.223 29.0239 40.2339 29.0505 40.2524L29.0386 40.2804C29.0102 40.2619 28.9771 40.2529 28.9477 40.2529C28.887 40.2529 28.8601 40.2799 28.8601 40.313C28.8601 40.404 29.0642 40.3491 29.0642 40.4698C29.0642 40.5186 29.0254 40.5603 28.9405 40.5603C28.8908 40.5601 28.842 40.5426 28.8174 40.5171Z" fill="white"/>
</g>
<path d="M20.9997 2.18207C12.6851 2.18207 5.94531 8.92189 5.94531 17.2365C5.94531 21.3922 7.62918 25.1551 10.3525 27.8792C13.0766 30.6048 19.4943 34.549 19.8706 38.689C19.927 39.3097 20.3764 39.818 20.9996 39.818C21.6229 39.818 22.0723 39.3097 22.1287 38.689C22.505 34.549 28.9227 30.6048 31.6468 27.8792C34.3702 25.1551 36.0539 21.3923 36.0539 17.2365C36.0541 8.92189 29.3143 2.18207 20.9997 2.18207Z" fill="#FF4433"/>
<path d="M20.9995 22.5058C23.9095 22.5058 26.2685 20.1467 26.2685 17.2367C26.2685 14.3267 23.9095 11.9677 20.9995 11.9677C18.0895 11.9677 15.7305 14.3267 15.7305 17.2367C15.7305 20.1467 18.0895 22.5058 20.9995 22.5058Z" fill="white"/>
</svg>
