<svg width="90" height="90" viewBox="0 0 90 90" fill="none" xmlns="http://www.w3.org/2000/svg">
<circle opacity="0.5" cx="45" cy="45" r="45" fill="white"/>
<circle cx="45.0001" cy="45.0001" r="31.4151" fill="#2B2D42" fill-opacity="0.5"/>
<g clip-path="url(#clip0_150_759)">
<path d="M45.4245 65.3773C56.4442 65.3773 65.3773 56.4442 65.3773 45.4245C65.3773 34.4049 56.4442 25.4717 45.4245 25.4717C34.4049 25.4717 25.4717 34.4049 25.4717 45.4245C25.4717 56.4442 34.4049 65.3773 45.4245 65.3773Z" fill="#2B2D42"/>
<path d="M51.6192 44.0214L43.2342 38.2717C42.8577 37.9979 42.4471 37.861 42.139 37.861C41.4888 37.861 41.1123 38.3743 41.1123 39.1957V51.6192C41.1123 52.4748 41.4888 52.9539 42.1048 52.9539C42.4471 52.9539 42.8235 52.817 43.2 52.5432L51.585 46.7935C52.1326 46.4171 52.4406 45.9379 52.4406 45.3903C52.4406 44.8427 52.1668 44.3978 51.6192 44.0214Z" fill="#D90429"/>
</g>
<defs>
<clipPath id="clip0_150_759">
<rect width="39.9057" height="39.9057" fill="white" transform="translate(25.4717 25.4717)"/>
</clipPath>
</defs>
</svg>
