<svg width="35" height="35" viewBox="0 0 35 35" fill="none" xmlns="http://www.w3.org/2000/svg">
<circle cx="17.5" cy="17.5" r="17.5" fill="#416794"/>
<g clip-path="url(#clip0_149_299)">
<path d="M9.17282 14.5132C9.02146 14.131 8.82804 13.7324 9.28635 13.5169C10.2156 13.5047 11.1448 13.4925 12.0782 13.4803C12.4819 13.4925 12.6669 13.7812 12.8813 14.1838C13.5078 15.351 14.1595 16.514 14.9458 17.5836C15.2023 17.9333 15.6353 18.0675 15.9759 17.5104C16.0137 16.758 16.0516 16.0057 16.0894 15.2534C15.9633 14.379 15.6479 13.8626 15.0971 13.8097C14.7818 13.5128 15.0088 13.2688 15.7152 13.1387C16.8379 12.9069 17.8175 13.0126 18.6795 13.1184C19.4069 13.1631 19.512 13.6389 19.4994 14.1838C19.4742 15.1802 19.4531 16.1806 19.4531 17.1769C19.6676 18.1895 20.2394 17.7829 20.6178 17.3437C21.2948 16.4124 21.8834 15.5055 22.3753 14.4848C22.8841 13.4356 23.0229 13.5128 23.3803 13.5088C24.2338 13.5047 25.1756 13.464 25.8568 13.4884C27.2779 13.4071 27.114 14.0171 26.7145 14.6637C26.025 15.7902 25.1378 16.8068 24.3473 17.8805C23.868 18.5108 23.8764 18.9053 24.3852 19.2469C25.1378 20.048 25.9535 20.7963 26.6388 21.6503C27.3831 22.5816 26.8365 22.8378 26.1427 22.9069C25.3144 22.9069 24.4861 22.9069 23.6578 22.9069C22.9514 22.9191 22.3123 22.7483 21.8624 22.0203C20.8238 20.6905 20.0502 20.3245 19.739 21.0728C19.6045 21.4022 19.491 21.8455 19.4952 22.2766C19.4994 22.8784 19.1252 22.9272 18.6164 22.9435C18.0698 22.9435 17.5022 23.0736 16.9724 22.9435C15.0971 22.484 13.2976 21.6381 11.5442 18.7304C10.7538 17.4738 9.96329 16.0992 9.17282 14.5132Z" fill="white"/>
</g>
<defs>
<clipPath id="clip0_149_299">
<rect width="18" height="10" fill="white" transform="translate(9 13)"/>
</clipPath>
</defs>
</svg>
