<svg width="35" height="35" viewBox="0 0 35 35" fill="none" xmlns="http://www.w3.org/2000/svg">
<circle cx="17.5" cy="17.5" r="17.5" fill="#FF0B1D"/>
<path d="M25.4813 15.7781C25.4813 14.7281 25.2563 13.6031 24.8063 12.7031C24.5063 12.3281 24.0562 12.0281 23.5312 11.9531C21.4312 11.7281 19.3313 11.6531 17.2313 11.7281C15.1313 11.7281 13.0312 11.8031 11.0062 11.9531C10.5562 12.0281 10.1813 12.1781 9.88125 12.4781C9.20625 13.0781 9.13125 14.2031 9.05625 15.0281C8.98125 16.6781 8.98125 18.2531 9.05625 19.9031C9.05625 20.4281 9.13125 20.8781 9.28125 21.4031C9.35625 21.7781 9.58125 22.1531 9.80625 22.4531C10.1062 22.7531 10.4812 22.9781 10.9312 23.0531C12.5812 23.2781 14.1563 23.3531 15.8063 23.2781C18.4313 23.2781 20.7562 23.2781 23.4562 23.0531C23.9062 22.9781 24.2812 22.7531 24.5812 22.4531C24.8062 22.2281 24.9563 22.0031 25.0312 21.7031C25.3312 20.8781 25.4062 20.0531 25.4062 19.1531C25.4813 18.7781 25.4813 16.2281 25.4813 15.7781ZM15.5063 19.6781V15.0281L19.9313 17.3531C18.7313 18.0281 17.0813 18.7781 15.5063 19.6781Z" fill="white"/>
</svg>
